HIERARCHY
ROOT Hips
{
    OFFSET 0.000000 0.000000 0.000000
    CHANNELS 6 Xposition Yposition Zposition Zrotation Xrotation Yrotation
        JOINT Chest
        {
            OFFSET -0.000000 29.391830 -0.000000
            CHANNELS 3 Zrotation Xrotation Yrotation
            JOINT Neck
            {
                OFFSET -0.000000 21.536943 0.000000
                CHANNELS 3 Zrotation Xrotation Yrotation
                JOINT Head
                {
                    OFFSET -0.000000 10.450000 0.000000
                    CHANNELS 3 Zrotation Xrotation Yrotation
                    End Site
                    {
                        OFFSET -0.000000 16.150003 0.000000
                    }
                }
            }
            JOINT LeftCollar
            {
                OFFSET -0.000000 21.536943 0.000000
                CHANNELS 3 Zrotation Xrotation Yrotation
                JOINT LeftShoulder
                {
                    OFFSET 19.500000 -0.000000 0.000000
                    CHANNELS 3 Zrotation Xrotation Yrotation
                    JOINT LeftElbow
                    {
                        OFFSET 20.632557 0.000000 0.000000
                        CHANNELS 3 Zrotation Xrotation Yrotation
                        JOINT LeftWrist
                        {
                            OFFSET 24.683100 0.000000 0.000000
                            CHANNELS 3 Zrotation Xrotation Yrotation
                            End Site
                            {
                                OFFSET 0.000000 -14.250000 0.000000
                            }
                        }
                    }
                }
            }
            JOINT RightCollar
            {
                OFFSET -0.000000 21.536943 0.000000
                CHANNELS 3 Zrotation Xrotation Yrotation
                JOINT RightShoulder
                {
                    OFFSET -19.500000 0.000000 0.000000
                    CHANNELS 3 Zrotation Xrotation Yrotation
                    JOINT RightElbow
                    {
                        OFFSET -20.632557 0.000000 0.000000
                        CHANNELS 3 Zrotation Xrotation Yrotation
                        JOINT RightWrist
                        {
                            OFFSET -24.683100 0.000000 0.000000
                            CHANNELS 3 Zrotation Xrotation Yrotation
                            End Site
                            {
                                OFFSET -0.000000 -14.250000 0.000000
                            }
                        }
                    }
                }
            }
        }
    JOINT LeftHip
    {
        OFFSET 11.400001 0.000000 0.000000
        CHANNELS 3 Zrotation Xrotation Yrotation
        JOINT LeftKnee
        {
            OFFSET -0.000000 -38.134491 0.000000
            CHANNELS 3 Zrotation Xrotation Yrotation
            JOINT LeftAnkle
            {
                OFFSET -0.000000 -39.452507 0.000000
                CHANNELS 3 Zrotation Xrotation Yrotation
                End Site
                {
                    OFFSET -0.000000 -4.750000 16.150003
                }
            }
        }
    }
    JOINT RightHip
    {
        OFFSET -11.400001 0.000000 0.000000
        CHANNELS 3 Zrotation Xrotation Yrotation
        JOINT RightKnee
        {
            OFFSET -0.000000 -38.134491 0.000000
            CHANNELS 3 Zrotation Xrotation Yrotation
            JOINT RightAnkle
            {
                OFFSET -0.000000 -39.452507 0.000000
                CHANNELS 3 Zrotation Xrotation Yrotation
                End Site
                {
                    OFFSET -0.000000 -4.750000 16.150003
                }
            }
        }
    }
}
MOTION
Frames:    10
Frame Time:    0.010000
-52.402412    83.014244    -52.537094    4.604800    7.839369    -69.444885    -7.026638    16.309277    1.220861    -14.729352    -3.517353    14.449529    -2.607292    -30.680258    14.192269    -16.660961    0.058579    -0.718024    -33.887245    1.044284    -32.354473    -0.371047    0.017677    -8.570402    94.342476    1.960513    81.930588    27.877573    1.137633    4.444134    -51.644470    53.369831    102.657616    -27.707851    -6.610641    26.482841    -67.651802    -11.226545    -14.178651    20.284773    -33.094616    12.713909    -4.764348    36.037285    4.341918    -2.117870    -8.733911    7.489836    1.471996    -12.716980    8.627871    -5.690790    28.543463    4.671732    9.836017    -24.480017    6.327523    
-52.505730    82.987854    -51.948750    4.586523    7.492241    -70.046692    -7.254957    15.925294    1.013191    -14.928561    -3.245384    14.704751    -2.387063    -31.262028    14.466017    -16.428532    0.117527    -1.064762    -33.928509    -0.295468    -31.631454    -0.474486    0.053066    -8.353544    94.133636    2.242464    82.192207    27.849445    1.101099    4.374333    -51.381561    53.502926    101.893654    -27.686453    -6.662571    26.690920    -65.395493    -11.447759    -13.300318    19.933746    -32.689682    12.707708    -5.237073    36.423943    5.062723    -1.815007    -9.137738    7.506143    0.821773    -12.643962    8.707670    -5.752495    28.788088    4.778174    11.143241    -24.410021    7.099739    
-52.615623    82.962196    -51.343025    4.549509    7.131588    -70.686584    -7.471930    15.505843    0.832834    -15.117523    -2.940329    14.976775    -2.193589    -31.844431    14.745912    -16.184795    0.160728    -1.411123    -33.908752    -1.638051    -30.903149    -0.534213    0.033496    -8.224549    93.955658    2.680232    82.357948    27.779921    1.067781    4.282419    -51.071541    53.633957    101.059669    -27.562105    -6.673670    26.927130    -63.156647    -11.723761    -12.398566    19.541189    -32.219078    12.763301    -5.628089    36.745888    5.710253    -1.569905    -9.512076    7.524623    0.155215    -12.557508    8.854516    -5.794428    29.020479    4.814180    12.497498    -24.254936    7.925032    
-52.731918    82.938805    -50.718807    4.493456    6.759118    -71.367088    -7.666556    15.054911    0.676042    -15.296541    -2.638225    15.281907    -2.005906    -32.405590    15.059514    -15.930616    0.209812    -1.694149    -33.815273    -2.990911    -30.204393    -0.583653    0.040610    -8.152319    93.790161    3.239170    82.483627    27.668211    1.039660    4.202130    -50.734955    53.750275    100.174911    -27.353323    -6.650941    27.147072    -60.940193    -12.057564    -11.457119    19.102268    -31.681442    12.859859    -5.941381    36.997238    6.289418    -1.378946    -9.855525    7.559754    -0.528298    -12.464913    9.047025    -5.824530    29.242746    4.813703    13.816566    -24.008614    8.771191    
-52.854027    82.919670    -50.075485    4.420614    6.376285    -72.088837    -7.845970    14.554451    0.540335    -15.459995    -2.240180    15.566358    -1.892113    -32.956532    15.316730    -15.678669    0.250054    -2.052190    -33.615257    -4.279287    -29.496931    -0.591487    0.069993    -8.146420    93.621132    3.895622    82.610252    27.530048    1.009882    4.032919    -50.302483    53.848125    99.139214    -27.047161    -6.605589    27.346485    -58.770332    -12.416055    -10.460791    18.609915    -31.079979    12.970525    -6.184081    37.172417    6.811230    -1.232243    -10.166406    7.627503    -1.230643    -12.377574    9.259769    -5.851052    29.460646    4.823219    15.015497    -23.675400    9.598174    
-52.981174    82.907310    -49.413246    4.335203    5.984600    -72.850670    -8.003938    14.015068    0.420077    -15.616043    -1.892998    15.906021    -1.749746    -33.469513    15.647535    -15.418668    0.279868    -2.255559    -33.320839    -5.533219    -28.869225    -0.590404    0.049853    -8.181101    93.464828    4.598481    82.667068    27.354002    0.997631    3.929578    -49.823627    53.940765    98.020279    -26.614885    -6.519889    27.563158    -56.665920    -12.767043    -9.407228    18.056452    -30.421537    13.066373    -6.364656    37.266014    7.294720    -1.116967    -10.443035    7.738443    -1.953617    -12.309561    9.468335    -5.881018    29.682911    4.894915    16.021914    -23.267782    10.361926    
-53.113014    82.904694    -48.732990    4.241361    5.585155    -73.650421    -8.122895    13.440098    0.311532    -15.764014    -1.562019    16.280989    -1.606209    -33.929203    16.017101    -15.152065    0.303421    -2.357599    -32.927578    -6.742339    -28.309328    -0.588169    0.021265    -8.235002    93.302956    5.313706    82.701073    27.148102    0.963790    3.858081    -49.334423    54.025440    96.849892    -26.096802    -6.412863    27.719137    -54.634422    -13.115444    -8.308477    17.434776    -29.713476    13.121628    -6.490088    37.273060    7.761267    -1.023552    -10.685029    7.897416    -2.697287    -12.272430    9.655436    -5.919949    29.916719    5.073367    16.790974    -22.799688    11.022514    
-53.250259    82.915268    -48.035824    4.140650    5.178196    -74.484612    -8.211313    12.814804    0.214514    -15.912711    -1.128536    16.633760    -1.525011    -34.380127    16.330147    -14.889042    0.311995    -2.530580    -32.421013    -7.872630    -27.755119    -0.573413    0.047391    -8.300157    93.122231    6.025984    82.798882    26.922104    0.904508    3.712911    -48.756073    54.116386    95.521851    -25.472239    -6.261855    27.850025    -52.697033    -13.435660    -7.182923    16.738178    -28.959652    13.115891    -6.563880    37.188232    8.228085    -0.946297    -10.894135    8.105377    -3.459852    -12.269417    9.812323    -5.972470    30.162415    5.384579    17.310137    -22.279627    11.554433    
-53.394848    82.942627    -47.322979    4.030940    4.763845    -75.349258    -8.271729    12.159361    0.131062    -16.070639    -0.730396    17.027447    -1.414043    -34.806805    16.700043    -14.606985    0.327379    -2.593681    -31.841791    -9.004631    -27.282759    -0.592961    0.050251    -8.348425    92.973274    6.712509    82.861763    26.654608    0.867536    3.624126    -48.066708    54.209919    94.036545    -24.694620    -6.063168    28.016020    -50.887035    -13.669469    -6.037117    15.962232    -28.158689    13.035927    -6.586435    37.006187    8.704425    -0.880608    -11.073769    8.361673    -4.237575    -12.294264    9.936377    -6.042255    30.412106    5.832786    17.596613    -21.707466    11.952604    
-53.549469    82.990219    -46.596031    3.907580    4.342994    -76.240402    -8.294722    11.487217    0.064858    -16.249166    -0.336771    17.440779    -1.284320    -35.209785    17.096035    -14.303239    0.313570    -2.612209    -31.197748    -10.113762    -26.865952    -0.606542    0.017618    -8.409175    92.832848    7.403807    82.936195    26.344423    0.828249    3.558635    -47.273556    54.286686    92.404839    -23.824301    -5.839901    28.119270    -49.175442    -13.847896    -4.869026    15.106265    -27.305431    12.876194    -6.556655    36.721912    9.194249    -0.821500    -11.228534    8.663608    -5.024815    -12.334184    10.027708    -6.133178    30.651545    6.404177    17.691328    -21.074619    12.232419    
